<svg version="1.2" xmlns="http://www.w3.org/2000/svg" viewBox="0 0 178 41" width="391" height="90">
	<title>imagiflix</title>
	<style>
		.s0 { fill: #e50913 } 
	</style>
	<path id="imagiflix" fill-rule="evenodd" class="s0" d="m1 41q0-19.8 0-39.6 3.1 0 6.3 0c0 13.2 0 26 0 38.8q-3.2 0.4-6.3 0.8zm20.9-39.6c1.5 9.4 3 18.1 4.6 26.4 1.4-8.5 2.8-17.1 4.3-26.4q4.3 0 8.7 0c0 13.1 0 24.3-0.1 35.5q-2.9 0.2-5.9 0.5c0-8.2 0-16.4 0-25.2-1.4 8.8-2.9 17.1-4.3 25.6q-3 0.3-5.9 0.6c-1.6-8.3-3.1-16.7-4.7-25.6 0 8.9 0 17.5 0 26.1q-2.7 0.3-5.5 0.6c0-12.5 0-24.9 0-38.1q4.4 0 8.8 0zm37.8 0c2.1 13.1 4.2 23.5 6.3 33.8q-3.2 0.2-6.3 0.3-0.6-2.8-1.1-5.7-3.9 0.2-7.7 0.4-0.6 2.9-1.1 5.9-2.9 0.2-5.8 0.4c2.2-11.2 4.4-22 6.5-35.1q4.6 0 9.2 0zm-8 24.3q3-0.1 6-0.2c-0.9-5.4-1.9-11.1-2.9-17.3-1.1 6.2-2.1 11.9-3.1 17.5zm27.8-3.7q0.1-2.3 0.1-4.7 4.3 0 8.7 0c0 3.5 0 6.8 0 10.1 0 4.9-3.2 7.7-9.4 7.8-6.1 0.1-9.3-2.5-9.3-7.6 0-5.4 0-11 0.1-17.2 0-5.7 3.2-9.4 9.3-9.4 6.2 0 9.4 3.7 9.4 9.4q-0.1 1.7-0.1 3.3-2.9 0-5.9 0.1 0-1.9 0-3.8c0-2.5-1.2-3.6-3.2-3.6-2 0-3.3 1.1-3.3 3.6 0 6.4 0 12.2 0 17.8 0 2.2 1.2 3 3.2 3 2-0.1 3.3-0.9 3.3-3.1q0-2.8 0-5.7-1.4 0-2.9 0zm10.9 12.7c0.1-10.1 0.1-20.2 0.1-33.3q3.2 0 6.3 0c0 13.1-0.1 23.2-0.1 33.3q-3.1 0-6.3 0zm18.6-17.3q4 0 8.1 0.1 0 2.4 0 4.7-4.1-0.1-8.1-0.1c0 4.4-0.1 8.6-0.1 12.9q-3.1-0.1-6.3-0.2c0.1-10.2 0.1-20.3 0.1-33.4q8.3 0 16.6 0 0 2.8 0 5.5-5.1 0-10.3 0c0 3.7 0 7.2 0 10.5zm14 18.1c0-10.5 0.1-21 0.1-34.1q3.1 0 6.2 0c0 11.2 0 20.7 0 29.9q5.2 0.3 10.3 0.6 0 2.4 0 4.7-8.3-0.6-16.6-1.1zm20.4-34.1q3.2 0 6.3 0c0 13.1 0 24.6-0.1 36.2q-3.1-0.4-6.2-0.6c0-11.3 0-22.5 0-35.6zm27.3 0q2.9 0 5.8 0c-2.1 6.5-4.3 12.8-6.5 18.9 2.3 6.7 4.7 13.6 7 20.7q-3.3-0.5-6.6-1c-1.7-5.2-3.4-10.4-5.1-15.4q-2.6 7.3-5.3 14.1-2.9-0.4-5.8-0.7c2.3-5.8 4.7-11.7 7-18-2.2-6.1-4.4-12.2-6.5-18.6q3.2 0 6.5 0c1.5 4.9 3.1 9.6 4.7 14.3 1.6-4.6 3.2-9.4 4.8-14.3z"/>
</svg>